<svg width="204" height="84" viewBox="0 0 204 84" fill="none" xmlns="http://www.w3.org/2000/svg"><g clip-path="url(#a)"><path d="M0 0h204v84H0z" fill="#F0141E"/><path d="M172.633 19.58V6.716h-34.968l-5.757 42.959-5.687-42.959H113.61l1.409 11.471c-1.453-2.94-6.614-11.47-17.977-11.47-.075-.006-12.625 0-12.625 0l-.052 62.615-9.19-62.616-16.517-.005-9.508 64.876.005-64.87h-15.81l-5.698 36.442-5.55-36.443H6.282v70.532h12.453V43.25l5.666 33.997h6.62l5.585-33.997v33.997h24.005l1.452-10.849h9.665l1.451 10.849 23.571.015h.017v-.015h.03V54.356l2.886-.43 5.981 23.337h12.193l-.005-.015h.035l-7.85-27.347c3.975-3.015 8.467-10.659 7.272-17.975v-.002c.014.095 7.411 45.37 7.411 45.37l14.498-.045 9.905-63.926V77.25h23.508V64.565h-11.156V48.392h11.156V35.515h-11.156V19.58zM63.531 55.217l3.422-30.156 3.545 30.156zm36.193-13.925a6.65 6.65 0 0 1-2.926.71V19.318l.062-.002c.971-.008 8.243.3 8.243 11.218 0 5.71-2.473 9.313-5.38 10.758m97.996 23.261v12.68h-22.936V6.705h12.351v57.847z" fill="#fff"/></g><defs><clipPath id="a"><path fill="#fff" d="M0 0h204v84H0z"/></clipPath></defs></svg>